<mxfile host="app.diagrams.net" modified="2021-07-21T23:47:47.373Z" agent="5.0 (Macintosh; Intel Mac OS X 10_15_6) AppleWebKit/605.1.15 (KHTML, like Gecko) Version/14.0.3 Safari/605.1.15" etag="KvOUWVM0xL-I2lez9IH4" version="14.9.0" type="github">
  <diagram name="Page-1" id="13e1069c-82ec-6db2-03f1-153e76fe0fe0">
    <mxGraphModel dx="1269" dy="748" grid="1" gridSize="10" guides="1" tooltips="1" connect="1" arrows="1" fold="1" page="1" pageScale="1" pageWidth="1100" pageHeight="850" background="none" math="0" shadow="0">
      <root>
        <mxCell id="0" />
        <mxCell id="1" parent="0" />
        <mxCell id="7baba1c4bc27f4b0-3" value="InteractiveInput" style="shape=umlLifeline;perimeter=lifelinePerimeter;whiteSpace=wrap;html=1;container=1;collapsible=0;recursiveResize=0;outlineConnect=0;rounded=1;shadow=0;comic=0;labelBackgroundColor=none;strokeWidth=1;fontFamily=Verdana;fontSize=12;align=center;" parent="1" vertex="1">
          <mxGeometry x="260" y="80" width="120" height="747" as="geometry" />
        </mxCell>
        <mxCell id="7baba1c4bc27f4b0-4" value="Shift" style="shape=umlLifeline;perimeter=lifelinePerimeter;whiteSpace=wrap;html=1;container=1;collapsible=0;recursiveResize=0;outlineConnect=0;rounded=1;shadow=0;comic=0;labelBackgroundColor=none;strokeWidth=1;fontFamily=Verdana;fontSize=12;align=center;" parent="1" vertex="1">
          <mxGeometry x="517" y="80" width="80" height="747" as="geometry" />
        </mxCell>
        <mxCell id="7baba1c4bc27f4b0-6" value="Sort" style="shape=umlLifeline;perimeter=lifelinePerimeter;whiteSpace=wrap;html=1;container=1;collapsible=0;recursiveResize=0;outlineConnect=0;rounded=1;shadow=0;comic=0;labelBackgroundColor=none;strokeWidth=1;fontFamily=Verdana;fontSize=12;align=center;" parent="1" vertex="1">
          <mxGeometry x="717" y="80" width="83" height="747" as="geometry" />
        </mxCell>
        <mxCell id="7baba1c4bc27f4b0-7" value="Output" style="shape=umlLifeline;perimeter=lifelinePerimeter;whiteSpace=wrap;html=1;container=1;collapsible=0;recursiveResize=0;outlineConnect=0;rounded=1;shadow=0;comic=0;labelBackgroundColor=none;strokeWidth=1;fontFamily=Verdana;fontSize=12;align=center;" parent="1" vertex="1">
          <mxGeometry x="935" y="80" width="100" height="747" as="geometry" />
        </mxCell>
        <mxCell id="7baba1c4bc27f4b0-8" value="Conroller" style="shape=umlLifeline;perimeter=lifelinePerimeter;whiteSpace=wrap;html=1;container=1;collapsible=0;recursiveResize=0;outlineConnect=0;rounded=1;shadow=0;comic=0;labelBackgroundColor=none;strokeWidth=1;fontFamily=Verdana;fontSize=12;align=center;" parent="1" vertex="1">
          <mxGeometry x="80" y="80" width="70" height="747" as="geometry" />
        </mxCell>
        <mxCell id="7baba1c4bc27f4b0-9" value="" style="html=1;points=[];perimeter=orthogonalPerimeter;rounded=0;shadow=0;comic=0;labelBackgroundColor=none;strokeWidth=1;fontFamily=Verdana;fontSize=12;align=center;" parent="7baba1c4bc27f4b0-8" vertex="1">
          <mxGeometry x="31" y="80" width="10" height="40" as="geometry" />
        </mxCell>
        <mxCell id="v2sNKhrYKezQcKQ5aqy3-1" value="Actor" style="shape=umlActor;verticalLabelPosition=bottom;verticalAlign=top;html=1;outlineConnect=0;" parent="1" vertex="1">
          <mxGeometry x="10" y="80" width="30" height="60" as="geometry" />
        </mxCell>
        <mxCell id="v2sNKhrYKezQcKQ5aqy3-5" value="" style="endArrow=none;dashed=1;html=1;dashPattern=1 3;strokeWidth=2;" parent="1" edge="1">
          <mxGeometry width="50" height="50" relative="1" as="geometry">
            <mxPoint x="20" y="710" as="sourcePoint" />
            <mxPoint x="20" y="160" as="targetPoint" />
          </mxGeometry>
        </mxCell>
        <mxCell id="hwUWDgS9RtKuWDAsTBJB-3" value="start" style="html=1;verticalAlign=bottom;endArrow=block;labelBackgroundColor=none;fontFamily=Verdana;fontSize=12;edgeStyle=elbowEdgeStyle;elbow=vertical;exitX=1.06;exitY=0.064;exitDx=0;exitDy=0;exitPerimeter=0;" parent="1" edge="1">
          <mxGeometry relative="1" as="geometry">
            <mxPoint x="121.59999999999991" y="192.55999999999995" as="sourcePoint" />
            <mxPoint x="319.5000000000002" y="192.52631578947376" as="targetPoint" />
          </mxGeometry>
        </mxCell>
        <mxCell id="GuuvEOTeNEV0MSkpKMg_-1" value="a" style="html=1;verticalAlign=bottom;endArrow=block;labelBackgroundColor=none;fontFamily=Verdana;fontSize=12;edgeStyle=elbowEdgeStyle;elbow=vertical;entryX=0.1;entryY=0.107;entryDx=0;entryDy=0;entryPerimeter=0;" edge="1" parent="1" target="GuuvEOTeNEV0MSkpKMg_-3">
          <mxGeometry relative="1" as="geometry">
            <mxPoint x="20" y="236" as="sourcePoint" />
            <mxPoint x="290" y="236" as="targetPoint" />
          </mxGeometry>
        </mxCell>
        <mxCell id="GuuvEOTeNEV0MSkpKMg_-3" value="" style="html=1;points=[];perimeter=orthogonalPerimeter;rounded=0;shadow=0;comic=0;labelBackgroundColor=none;strokeWidth=1;fontFamily=Verdana;fontSize=12;align=center;" vertex="1" parent="1">
          <mxGeometry x="315" y="220" width="10" height="150" as="geometry" />
        </mxCell>
        <mxCell id="GuuvEOTeNEV0MSkpKMg_-4" value="notify" style="html=1;verticalAlign=bottom;endArrow=block;labelBackgroundColor=none;fontFamily=Verdana;fontSize=12;edgeStyle=elbowEdgeStyle;elbow=vertical;" edge="1" parent="1">
          <mxGeometry relative="1" as="geometry">
            <mxPoint x="325" y="294.75" as="sourcePoint" />
            <mxPoint x="550" y="295" as="targetPoint" />
          </mxGeometry>
        </mxCell>
        <mxCell id="GuuvEOTeNEV0MSkpKMg_-5" value="" style="html=1;points=[];perimeter=orthogonalPerimeter;rounded=0;shadow=0;comic=0;labelBackgroundColor=none;strokeWidth=1;fontFamily=Verdana;fontSize=12;align=center;" vertex="1" parent="1">
          <mxGeometry x="552" y="280" width="10" height="150" as="geometry" />
        </mxCell>
        <mxCell id="GuuvEOTeNEV0MSkpKMg_-6" value="line to add?" style="html=1;verticalAlign=bottom;endArrow=block;labelBackgroundColor=none;fontFamily=Verdana;fontSize=12;edgeStyle=elbowEdgeStyle;elbow=vertical;exitX=0;exitY=0.267;exitDx=0;exitDy=0;exitPerimeter=0;dashed=1;" edge="1" parent="1" source="GuuvEOTeNEV0MSkpKMg_-3">
          <mxGeometry relative="1" as="geometry">
            <mxPoint x="310" y="260" as="sourcePoint" />
            <mxPoint x="20" y="260" as="targetPoint" />
            <Array as="points">
              <mxPoint x="150" y="260" />
            </Array>
          </mxGeometry>
        </mxCell>
        <mxCell id="GuuvEOTeNEV0MSkpKMg_-7" value="inputLine" style="html=1;verticalAlign=bottom;endArrow=block;labelBackgroundColor=none;fontFamily=Verdana;fontSize=12;edgeStyle=elbowEdgeStyle;elbow=vertical;entryX=-0.05;entryY=0.397;entryDx=0;entryDy=0;entryPerimeter=0;" edge="1" parent="1">
          <mxGeometry relative="1" as="geometry">
            <mxPoint x="19" y="281" as="sourcePoint" />
            <mxPoint x="314.5" y="280.54999999999995" as="targetPoint" />
          </mxGeometry>
        </mxCell>
        <mxCell id="GuuvEOTeNEV0MSkpKMg_-8" value="notify" style="html=1;verticalAlign=bottom;endArrow=block;labelBackgroundColor=none;fontFamily=Verdana;fontSize=12;edgeStyle=elbowEdgeStyle;elbow=vertical;entryX=0.05;entryY=0.227;entryDx=0;entryDy=0;entryPerimeter=0;" edge="1" parent="1" target="GuuvEOTeNEV0MSkpKMg_-9">
          <mxGeometry relative="1" as="geometry">
            <mxPoint x="562" y="354.75" as="sourcePoint" />
            <mxPoint x="787" y="355" as="targetPoint" />
          </mxGeometry>
        </mxCell>
        <mxCell id="GuuvEOTeNEV0MSkpKMg_-9" value="" style="html=1;points=[];perimeter=orthogonalPerimeter;rounded=0;shadow=0;comic=0;labelBackgroundColor=none;strokeWidth=1;fontFamily=Verdana;fontSize=12;align=center;" vertex="1" parent="1">
          <mxGeometry x="753.5" y="320" width="10" height="150" as="geometry" />
        </mxCell>
        <mxCell id="GuuvEOTeNEV0MSkpKMg_-13" value="doShift" style="html=1;verticalAlign=bottom;endArrow=block;labelBackgroundColor=none;fontFamily=Verdana;fontSize=12;elbow=vertical;edgeStyle=orthogonalEdgeStyle;curved=1;exitX=1.1;exitY=0.2;exitDx=0;exitDy=0;exitPerimeter=0;" edge="1" parent="1" source="GuuvEOTeNEV0MSkpKMg_-5">
          <mxGeometry x="-0.0932" y="11" relative="1" as="geometry">
            <mxPoint x="568" y="310" as="sourcePoint" />
            <mxPoint x="561.9966666666666" y="342.2" as="targetPoint" />
            <Array as="points">
              <mxPoint x="622" y="310" />
              <mxPoint x="622" y="342" />
            </Array>
            <mxPoint as="offset" />
          </mxGeometry>
        </mxCell>
        <mxCell id="GuuvEOTeNEV0MSkpKMg_-15" value="" style="html=1;points=[];perimeter=orthogonalPerimeter;rounded=0;shadow=0;comic=0;labelBackgroundColor=none;strokeWidth=1;fontFamily=Verdana;fontSize=12;align=center;" vertex="1" parent="1">
          <mxGeometry x="980" y="350" width="10" height="150" as="geometry" />
        </mxCell>
        <mxCell id="GuuvEOTeNEV0MSkpKMg_-16" value="notify" style="html=1;verticalAlign=bottom;endArrow=block;labelBackgroundColor=none;fontFamily=Verdana;fontSize=12;edgeStyle=elbowEdgeStyle;elbow=vertical;entryX=-0.029;entryY=0.204;entryDx=0;entryDy=0;entryPerimeter=0;" edge="1" parent="1" target="GuuvEOTeNEV0MSkpKMg_-15">
          <mxGeometry relative="1" as="geometry">
            <mxPoint x="763.5" y="380.7" as="sourcePoint" />
            <mxPoint x="955.4999999999998" y="379.99999999999994" as="targetPoint" />
          </mxGeometry>
        </mxCell>
        <mxCell id="GuuvEOTeNEV0MSkpKMg_-17" value="main" style="html=1;verticalAlign=bottom;endArrow=block;labelBackgroundColor=none;fontFamily=Verdana;fontSize=12;edgeStyle=elbowEdgeStyle;elbow=horizontal;exitX=1.06;exitY=0.064;exitDx=0;exitDy=0;exitPerimeter=0;" edge="1" parent="1">
          <mxGeometry relative="1" as="geometry">
            <mxPoint x="19.999999999999915" y="170.02999999999994" as="sourcePoint" />
            <mxPoint x="110" y="170" as="targetPoint" />
          </mxGeometry>
        </mxCell>
      </root>
    </mxGraphModel>
  </diagram>
</mxfile>
